<svg xmlns="http://www.w3.org/2000/svg" viewBox="0 0 64 64" width="64" height="64">
  <rect width="64" height="64" rx="14" fill="#fafaf9"/>
  <g transform="translate(15.000,20.278) scale(0.031681,-0.031681) translate(-76.789,-730.000)" fill="#0f172a">
    <path d="M346.62554931640625 -10Q278.62554931640625 -10 238.79559326171875 28.25506591796875Q198.96563720703125 66.5101318359375 198.96563720703125 134.1903076171875L226.9110107421875 105H198.96563720703125V0H76.7894287109375V730H201.8907470703125V575.8502197265625L198.13568115234375 445H226.9110107421875L198.96563720703125 415.8096923828125Q198.96563720703125 483.07489013671875 239.00308227539062 521.5374450683594Q279.04052734375 560 346.62554931640625 560Q429.62554931640625 560 479.62554931640625 502.9524230957031Q529.6255493164062 445.90484619140625 529.6255493164062 349.1497802734375V200.43524169921875Q529.6255493164062 103.5101318359375 479.62554931640625 46.75506591796875Q429.62554931640625 -10 346.62554931640625 -10ZM302.58502197265625 98.421142578125Q350.8096923828125 98.421142578125 377.6669616699219 126.27841186523438Q404.52423095703125 154.13568115234375 404.52423095703125 205.8502197265625V344.1497802734375Q404.52423095703125 395.86431884765625 377.6669616699219 423.7215881347656Q350.8096923828125 451.578857421875 302.58502197265625 451.578857421875Q255.77532958984375 451.578857421875 228.83303833007812 423.3066101074219Q201.8907470703125 395.03436279296875 201.8907470703125 344.1497802734375V205.8502197265625Q201.8907470703125 154.96563720703125 228.83303833007812 126.69338989257812Q255.77532958984375 98.421142578125 302.58502197265625 98.421142578125Z"/>
    <g transform="translate(600,0)"><path d="M375 0Q327 0 291.0 19.0Q255 38 235.0 73.0Q215 108 215 155V648H30V730H305V155Q305 121 324.0 101.5Q343 82 375 82H550V0Z"/></g>
  </g>
</svg>
